<?xml version="1.0" encoding="utf-8"?>
<!-- Generator: Adobe Illustrator 21.0.0, SVG Export Plug-In . SVG Version: 6.00 Build 0)  -->
<svg version="1.1" id="Capa_1" xmlns="http://www.w3.org/2000/svg" xmlns:xlink="http://www.w3.org/1999/xlink" x="0px" y="0px"
	 viewBox="0 0 320 128" style="enable-background:new 0 0 320 128;" xml:space="preserve">
<style type="text/css">
	.st0{fill:url(#SVGID_1_);stroke:#000000;stroke-width:4;stroke-miterlimit:10;}
	.st1{fill:url(#SVGID_2_);stroke:#000000;stroke-width:4;stroke-miterlimit:10;}
</style>
<linearGradient id="SVGID_1_" gradientUnits="userSpaceOnUse" x1="111" y1="64.1446" x2="164.7229" y2="64.1446">
	<stop  offset="0" style="stop-color:#FFC5AB"/>
	<stop  offset="0.6181" style="stop-color:#FF94AC"/>
	<stop  offset="1" style="stop-color:#FF7BAC"/>
</linearGradient>
<polyline class="st0" points="164.7,24 111,24 111,37.6 145.2,37.6 145.2,58.2 116.9,58.2 116.9,71.8 145.2,71.8 145.2,91.2 
	113.4,91.2 111,104.3 164.7,104.3 "/>
<linearGradient id="SVGID_2_" gradientUnits="userSpaceOnUse" x1="145.241" y1="64.1446" x2="210.3778" y2="64.1446">
	<stop  offset="0" style="stop-color:#FF7BAC"/>
	<stop  offset="0.6555" style="stop-color:#CC9DE6"/>
	<stop  offset="1" style="stop-color:#B5ACFF"/>
</linearGradient>
<path class="st1" d="M145.2,104.3V24c11.8,0,23.6,0,35.4,0c13.4,0.9,23.6,11.7,23.6,23.6c0,9.7-6.6,18.8-16.5,22.4l21.3,34.2h-21.3
	L170,73h-5.3v31.3H145.2z M164.7,36.4v24.2h10c5.9-1.2,10.2-6.5,10-12.4c-0.1-5.7-4.3-10.7-10-11.8H164.7z"/>
</svg>
